<svg xmlns="http://www.w3.org/2000/svg" xmlns:xlink="http://www.w3.org/1999/xlink" width="500" zoomAndPan="magnify" viewBox="0 0 375 374.999991" height="500" preserveAspectRatio="xMidYMid meet" version="1.0"><defs><g/><clipPath id="6ba45b55ef"><path d="M 187.5 0 C 83.945312 0 0 83.945312 0 187.5 C 0 291.054688 83.945312 375 187.5 375 C 291.054688 375 375 291.054688 375 187.5 C 375 83.945312 291.054688 0 187.5 0 Z M 187.5 0 " clip-rule="nonzero"/></clipPath></defs><g clip-path="url(#6ba45b55ef)"><rect x="-37.5" width="450" fill="#000000" y="-37.499999" height="449.999989" fill-opacity="1"/></g><g fill="#ffffff" fill-opacity="1"><g transform="translate(28.820705, 285.451486)"><g><path d="M 333.984375 -142.625 C 334.210938 -142.863281 334.445312 -142.921875 334.6875 -142.796875 C 334.925781 -142.679688 335.046875 -142.507812 335.046875 -142.28125 C 335.273438 -142.039062 335.15625 -141.6875 334.6875 -141.21875 C 314.675781 -132.976562 294.375 -125.148438 273.78125 -117.734375 C 253.1875 -110.328125 232.535156 -103.328125 211.828125 -96.734375 L 234.78125 24.359375 C 235.25 27.890625 233.71875 30.125 230.1875 31.0625 C 229.476562 31.0625 228.769531 31.003906 228.0625 30.890625 C 227.363281 30.773438 226.660156 30.597656 225.953125 30.359375 C 213.242188 22.117188 200.53125 14 187.8125 6 C 175.101562 -2 162.28125 -9.882812 149.34375 -17.65625 C 137.8125 -25.1875 124.984375 -33.007812 110.859375 -41.125 C 96.734375 -49.25 83.316406 -55.898438 70.609375 -61.078125 C 68.015625 -62.253906 67.304688 -64.019531 68.484375 -66.375 C 68.722656 -67.550781 69.785156 -68.375 71.671875 -68.84375 C 92.617188 -72.375 113.625 -76.550781 134.6875 -81.375 C 155.75 -86.195312 176.640625 -91.550781 197.359375 -97.4375 L 194.875 -109.4375 C 186.40625 -148.28125 178.285156 -187.117188 170.515625 -225.953125 C 145.566406 -187.585938 119.265625 -149.8125 91.609375 -112.625 C 63.953125 -75.4375 33.648438 -40.71875 0.703125 -8.46875 C 0.472656 -8.238281 0.117188 -8.238281 -0.359375 -8.46875 C -0.585938 -8.9375 -0.585938 -9.289062 -0.359375 -9.53125 C 15.179688 -28.59375 30.304688 -48.007812 45.015625 -67.78125 C 59.722656 -87.550781 73.90625 -107.554688 87.5625 -127.796875 C 101.675781 -147.804688 115.378906 -168.164062 128.671875 -188.875 C 141.972656 -209.59375 154.984375 -230.304688 167.703125 -251.015625 C 169.109375 -253.609375 171.34375 -254.90625 174.40625 -254.90625 C 175.113281 -254.90625 175.816406 -254.785156 176.515625 -254.546875 C 177.222656 -254.304688 177.929688 -253.953125 178.640625 -253.484375 C 180.523438 -252.304688 181.703125 -250.539062 182.171875 -248.1875 C 186.878906 -225.59375 191.410156 -202.9375 195.765625 -180.21875 C 200.117188 -157.507812 204.414062 -134.742188 208.65625 -111.921875 L 210.765625 -101.328125 C 231.710938 -107.441406 252.484375 -113.910156 273.078125 -120.734375 C 293.671875 -127.566406 313.972656 -134.863281 333.984375 -142.625 Z M 85.796875 -63.203125 C 97.554688 -57.785156 109.144531 -51.898438 120.5625 -45.546875 C 131.976562 -39.191406 143.21875 -32.71875 154.28125 -26.125 C 165.34375 -19.53125 176.460938 -12.9375 187.640625 -6.34375 C 198.828125 0.238281 209.832031 6.941406 220.65625 13.765625 L 198.40625 -92.5 C 179.8125 -86.851562 161.160156 -81.554688 142.453125 -76.609375 C 123.742188 -71.671875 104.859375 -67.203125 85.796875 -63.203125 Z M 85.796875 -63.203125 "/></g></g></g></svg>