<svg xmlns="http://www.w3.org/2000/svg" xmlns:xlink="http://www.w3.org/1999/xlink" width="500" zoomAndPan="magnify" viewBox="0 0 375 374.999991" height="500" preserveAspectRatio="xMidYMid meet" version="1.0"><defs><g/></defs><rect x="-37.5" width="450" fill="#ffffff" y="-37.499999" height="449.999989" fill-opacity="1"/><rect x="-37.5" width="450" fill="#000000" y="-37.499999" height="449.999989" fill-opacity="1"/><g fill="#ffffff" fill-opacity="1"><g transform="translate(15.35803, 307.608874)"><g><path d="M 351.421875 -150.078125 C 351.671875 -150.328125 351.914062 -150.390625 352.15625 -150.265625 C 352.40625 -150.140625 352.53125 -149.953125 352.53125 -149.703125 C 352.78125 -149.460938 352.660156 -149.09375 352.171875 -148.59375 C 331.117188 -139.925781 309.753906 -131.691406 288.078125 -123.890625 C 266.410156 -116.085938 244.679688 -108.71875 222.890625 -101.78125 L 247.03125 25.625 C 247.53125 29.34375 245.921875 31.695312 242.203125 32.6875 C 241.460938 32.6875 240.71875 32.625 239.96875 32.5 C 239.226562 32.375 238.488281 32.191406 237.75 31.953125 C 224.375 23.285156 211 14.738281 197.625 6.3125 C 184.25 -2.101562 170.753906 -10.398438 157.140625 -18.578125 C 145.003906 -26.503906 131.503906 -34.738281 116.640625 -43.28125 C 101.785156 -51.820312 87.671875 -58.816406 74.296875 -64.265625 C 71.566406 -65.503906 70.820312 -67.363281 72.0625 -69.84375 C 72.3125 -71.082031 73.425781 -71.945312 75.40625 -72.4375 C 97.445312 -76.15625 119.550781 -80.550781 141.71875 -85.625 C 163.882812 -90.707031 185.863281 -96.34375 207.65625 -102.53125 L 205.0625 -115.15625 C 196.144531 -156.019531 187.597656 -196.882812 179.421875 -237.75 C 153.171875 -197.382812 125.492188 -157.632812 96.390625 -118.5 C 67.296875 -79.375 35.414062 -42.847656 0.75 -8.921875 C 0.5 -8.671875 0.125 -8.671875 -0.375 -8.921875 C -0.625 -9.410156 -0.625 -9.78125 -0.375 -10.03125 C 15.96875 -30.09375 31.878906 -50.523438 47.359375 -71.328125 C 62.835938 -92.128906 77.757812 -113.179688 92.125 -134.484375 C 106.988281 -155.523438 121.414062 -176.941406 135.40625 -198.734375 C 149.394531 -220.535156 163.078125 -242.332031 176.453125 -264.125 C 177.941406 -266.851562 180.296875 -268.21875 183.515625 -268.21875 C 184.253906 -268.21875 184.992188 -268.09375 185.734375 -267.84375 C 186.484375 -267.59375 187.226562 -267.21875 187.96875 -266.71875 C 189.945312 -265.488281 191.1875 -263.632812 191.6875 -261.15625 C 196.632812 -237.375 201.398438 -213.535156 205.984375 -189.640625 C 210.566406 -165.742188 215.085938 -141.785156 219.546875 -117.765625 L 221.78125 -106.609375 C 243.820312 -113.054688 265.675781 -119.867188 287.34375 -127.046875 C 309.007812 -134.234375 330.367188 -141.910156 351.421875 -150.078125 Z M 90.265625 -66.5 C 102.648438 -60.800781 114.847656 -54.609375 126.859375 -47.921875 C 138.867188 -41.234375 150.695312 -34.421875 162.34375 -27.484375 C 173.976562 -20.554688 185.675781 -13.625 197.4375 -6.6875 C 209.207031 0.25 220.785156 7.304688 232.171875 14.484375 L 208.78125 -97.328125 C 189.207031 -91.378906 169.578125 -85.804688 149.890625 -80.609375 C 130.203125 -75.410156 110.328125 -70.707031 90.265625 -66.5 Z M 90.265625 -66.5 "/></g></g></g></svg>